<?xml version="1.0" encoding="utf-8"?>
<!-- Generator: Adobe Illustrator 27.5.0, SVG Export Plug-In . SVG Version: 6.00 Build 0)  -->
<svg version="1.1" id="Layer_1" xmlns="http://www.w3.org/2000/svg" xmlns:xlink="http://www.w3.org/1999/xlink" x="0px" y="0px"
	 viewBox="0 0 3873 3873" style="enable-background:new 0 0 3873 3873;" xml:space="preserve">
<g id="Layer_1_1_">
	
		<linearGradient id="SVGID_1_" gradientUnits="userSpaceOnUse" x1="578.6723" y1="-1721.2115" x2="3299.083" y2="999.1999" gradientTransform="matrix(1 0 0 1 0 2302.9834)">
		<stop  offset="0" style="stop-color:#E83B8C"/>
		<stop  offset="1" style="stop-color:#A1174D"/>
	</linearGradient>
	<circle style="fill-rule:evenodd;clip-rule:evenodd;fill:url(#SVGID_1_);" cx="1938.9" cy="1942" r="1889.3"/>
	<g>
		<path style="fill-rule:evenodd;clip-rule:evenodd;fill:#FFFFFF;" d="M2091.6,2043.5h-88.2c-19.7,0-36.2-16.5-36.2-36.2v-88.2
			c0-19.7,16.5-36.2,36.2-36.2c20.5,0,36.2,16.5,36.2,36.2v52h52c19.7,0,36.2,16.5,36.2,36.2
			C2127.8,2027.8,2112,2043.5,2091.6,2043.5z"/>
		<path style="fill-rule:evenodd;clip-rule:evenodd;fill:#FFFFFF;" d="M2427.7,2043.5h-159c-19.7,0-36.2-16.5-36.2-36.2
			s16.5-36.2,36.2-36.2h159c20.5,0,36.2,16.5,36.2,36.2C2463.9,2027.8,2447.4,2043.5,2427.7,2043.5L2427.7,2043.5z M2745.7,2043.5
			h-159c-19.7,0-36.2-16.5-36.2-36.2s16.5-36.2,36.2-36.2h159c20.5,0,36.2,16.5,36.2,36.2
			C2781.9,2027.8,2765.4,2043.5,2745.7,2043.5z"/>
		<path style="fill-rule:evenodd;clip-rule:evenodd;fill:#FFFFFF;" d="M3064.5,2043.5h-88.2c-19.7,0-36.2-16.5-36.2-36.2
			s16.5-36.2,36.2-36.2h52v-52c0-19.7,16.5-36.2,36.2-36.2s36.2,16.5,36.2,36.2v88.2C3101.5,2027.8,3085,2043.5,3064.5,2043.5z"/>
		<path style="fill-rule:evenodd;clip-rule:evenodd;fill:#FFFFFF;" d="M3064.5,1460.2c-19.7,0-36.2-16.5-36.2-36.2v-159
			c0-19.7,16.5-36.2,36.2-36.2s36.2,16.5,36.2,36.2v159C3101.5,1444.5,3085,1460.2,3064.5,1460.2L3064.5,1460.2z M3064.5,1778.3
			c-19.7,0-36.2-16.5-36.2-36.2v-159c0-19.7,16.5-36.2,36.2-36.2s36.2,16.5,36.2,36.2v159C3101.5,1762.5,3085,1778.3,3064.5,1778.3z
			"/>
		<path style="fill-rule:evenodd;clip-rule:evenodd;fill:#FFFFFF;" d="M3064.5,1071.4c-19.7,0-36.2-16.5-36.2-36.2v-52h-52
			c-19.7,0-36.2-16.5-36.2-36.2c0-20.5,16.5-36.2,36.2-36.2h88.2c19.7,0,36.2,16.5,36.2,36.2v88.2
			C3101.5,1054.8,3085,1071.4,3064.5,1071.4z"/>
		<path style="fill-rule:evenodd;clip-rule:evenodd;fill:#FFFFFF;" d="M2482,982.4h-159c-19.7,0-36.2-16.5-36.2-36.2
			c0-20.5,16.5-36.2,36.2-36.2h159c19.7,0,36.2,16.5,36.2,36.2C2518.2,966.7,2501.7,982.4,2482,982.4L2482,982.4z M2799.3,982.4
			h-159c-19.7,0-36.2-16.5-36.2-36.2c0-20.5,16.5-36.2,36.2-36.2h159c20.5,0,36.2,16.5,36.2,36.2
			C2835.5,966.7,2819.7,982.4,2799.3,982.4z"/>
		<path style="fill-rule:evenodd;clip-rule:evenodd;fill:#FFFFFF;" d="M2003.4,1071.4c-19.7,0-36.2-16.5-36.2-36.2V947
			c0-20.5,16.5-36.2,36.2-36.2h88.2c19.7,0,36.2,16.5,36.2,36.2s-16.5,36.2-36.2,36.2h-52v52
			C2039.6,1054.8,2023.1,1071.4,2003.4,1071.4z"/>
		<path style="fill-rule:evenodd;clip-rule:evenodd;fill:#FFFFFF;" d="M2003.4,1406.7c-19.7,0-36.2-16.5-36.2-36.2v-159
			c0-19.7,16.5-36.2,36.2-36.2c20.5,0,36.2,16.5,36.2,36.2v159C2039.6,1391,2023.1,1406.7,2003.4,1406.7L2003.4,1406.7z
			 M2003.4,1724.7c-19.7,0-36.2-16.5-36.2-36.2v-159c0-19.7,16.5-36.2,36.2-36.2c20.5,0,36.2,16.5,36.2,36.2v159
			C2039.6,1708.2,2023.1,1724.7,2003.4,1724.7z"/>
		<path style="fill-rule:evenodd;clip-rule:evenodd;fill:#FFFFFF;" d="M2534,1658.6c-19.7,0-36.2-16.5-36.2-36.2v-290.5
			c0-20.5,16.5-36.2,36.2-36.2s36.2,16.5,36.2,36.2v290.5C2570.2,1642.1,2554.4,1658.6,2534,1658.6z"/>
		<path style="fill-rule:evenodd;clip-rule:evenodd;fill:#FFFFFF;" d="M2679.6,1513.8h-290.5c-19.7,0-36.2-16.5-36.2-36.2
			s16.5-36.2,36.2-36.2h290.5c20.5,0,36.2,16.5,36.2,36.2S2700.1,1513.8,2679.6,1513.8z"/>
		<path style="fill-rule:evenodd;clip-rule:evenodd;fill:#FFFFFF;" d="M1807.4,2144.3L1683,2101l306.2,873.8l151.9-394.4
			c3.9-9.4,11-17.3,21.3-21.3l395.2-151.9l-740-259C1813.7,2147.5,1809.8,2145.9,1807.4,2144.3z"/>
		<path style="fill-rule:evenodd;clip-rule:evenodd;fill:#FFFFFF;" d="M776.2,1495.7v1010.8h971.4l-140.1-399.1v-0.8
			c-4.7-14.2-4.7-29.1,0.8-42.5c11.8-32.3,48-49.6,81.1-37.8l97.6,33.8v-565.2H776.2V1495.7z"/>
	</g>
</g>
<g id="Master_Layer_3">
</g>
</svg>
